<svg id="Layer_1" data-name="Layer 1" xmlns="http://www.w3.org/2000/svg" viewBox="0 0 825.99 375.29"><defs><style>.cls-1{fill:#1d1d1b;}</style></defs><path class="cls-1" d="M120.06,522.34q-10-1.25-13.75-5.25t-3.25-13q1.74-24.75,8.25-61.12t15.75-70.13a13,13,0,0,1,7-8.75q5.25-2.49,13.75-2.5,15.24,0,15.25,8.5a25.65,25.65,0,0,1-1.5,8q-6.51,20-13,53.63a639.92,639.92,0,0,0-9.25,64.12q7.5.75,17,.75,43.74,0,65.37-26.5t21.63-70.75q0-29.74-17-46t-48-16.25a130.11,130.11,0,0,0-39.63,6.25,145.6,145.6,0,0,0-35.37,16.5,12.07,12.07,0,0,1-7,2.25,7.77,7.77,0,0,1-6.75-3.62,15.25,15.25,0,0,1-2.5-8.88,21.34,21.34,0,0,1,2-9.87,20.06,20.06,0,0,1,6.75-7.13q17.25-11.74,40.5-17.87a175.64,175.64,0,0,1,44.75-6.13q30.49,0,52.75,10.63a77.2,77.2,0,0,1,34.25,31.12q12,20.51,12,49.5,0,37.76-15,65.88a104.68,104.68,0,0,1-43.75,43.62q-28.76,15.51-68.5,15.5A243.11,243.11,0,0,1,120.06,522.34Z" transform="translate(-87.06 -288.59)"/><path class="cls-1" d="M298.68,514.84q-3.87-10-3.87-32a203.52,203.52,0,0,1,9.25-61.75q2.25-7.24,7.37-10.62t14.38-3.38q5,0,7,1.25t2,4.75q0,4-3.75,18-2.51,10-4,17.5a177.65,177.65,0,0,0-2.5,18.5q8.25-21.49,18.5-35t20.12-19.25q9.88-5.74,18.13-5.75,16.24,0,16.25,16.25,0,3.26-2.25,15.75-2,10-2,12.5,0,8.76,6.25,8.75,7,0,18-11c2.16-2.16,4.41-3.25,6.75-3.25a5.82,5.82,0,0,1,5.12,2.88,13.78,13.78,0,0,1,1.88,7.62q0,9.26-5,14.5a67.76,67.76,0,0,1-16.38,12.38,40.77,40.77,0,0,1-19.87,5.12q-13.26,0-20.13-6.75t-6.87-18.25a38.16,38.16,0,0,1,.75-7.5q.49-5,.5-6.75c0-2.66-.92-4-2.75-4q-3.75,0-9.88,8.38t-12.12,22.12a179.91,179.91,0,0,0-9.75,29q-2.76,11.76-6.38,15.88c-2.41,2.75-6.21,4.12-11.37,4.12Q302.55,524.84,298.68,514.84Z" transform="translate(-87.06 -288.59)"/><path class="cls-1" d="M414.06,513.59q-9.26-11.25-9.25-29.5a81.23,81.23,0,0,1,9.25-37.87,78.86,78.86,0,0,1,24.62-28.75q15.38-10.87,32.63-10.88,5.49,0,7.37,2.13t3.13,7.62a59.21,59.21,0,0,1,11-1q12.24,0,12.25,8.75,0,5.25-3.75,25-5.76,28.76-5.75,40a9.07,9.07,0,0,0,1.87,6,6.06,6.06,0,0,0,4.88,2.25q4.74,0,11.5-6.12t18.25-19.88q3-3.49,6.75-3.5a5.78,5.78,0,0,1,5.12,3q1.88,3,1.88,8.25,0,10-4.75,15.5a126.29,126.29,0,0,1-21.75,21.5q-11.5,8.76-22.25,8.75a23.35,23.35,0,0,1-15.13-5.62,34.29,34.29,0,0,1-10.37-15.38q-13,21-32.75,21Q423.3,524.84,414.06,513.59Zm44.25-20.5q5-6.49,7.25-17.25l9.25-46q-10.5.26-19.38,7.88a53,53,0,0,0-14.12,20.12,67.77,67.77,0,0,0-5.25,26.5q0,7.76,3.12,11.5a10.62,10.62,0,0,0,8.63,3.75Q453.3,499.59,458.31,493.09Z" transform="translate(-87.06 -288.59)"/><path class="cls-1" d="M691.55,415.59a25.14,25.14,0,0,1-2,8.25q-20.25,47.25-38.25,76.25-9,14.25-16.25,19.5a27.45,27.45,0,0,1-16.5,5.25q-10,0-14.87-7.75t-6.13-25.5q-.51-6.49-1-19.5Q588.8,493.6,582.43,505t-12.5,15.62a25,25,0,0,1-14.63,4.25,18.88,18.88,0,0,1-16.12-8q-5.88-8-7.38-25.25-3-35-3-61.25v-8.75q.24-8.49,4.25-11.62t13-3.13q6.5,0,9.63,2.88t3.12,9.62q0,28.76,3.5,74.75,8.25-17.49,15.25-33.5t16.25-41q2.75-7.5,6.63-10.12a15.86,15.86,0,0,1,9.12-2.63q7,0,10.5,2.88t3.5,9.62v38.75q0,25,.25,36,11.49-20,18.88-34.75t16.62-39.75q2.75-7.5,7.25-10.12a22,22,0,0,1,11.25-2.63Q691.54,406.84,691.55,415.59Z" transform="translate(-87.06 -288.59)"/><path class="cls-1" d="M682.67,518.84q-5.62-6-5.62-15.75,0-11.25,6.37-18t17.88-6.75q11,0,16.62,5.38t5.63,15.87q0,11.51-6.5,18.38t-17.75,6.87Q688.29,524.84,682.67,518.84Z" transform="translate(-87.06 -288.59)"/><path class="cls-1" d="M833.67,470.84q1.88,3,1.88,8.25,0,10-4.75,15.5a107.4,107.4,0,0,1-23.38,21.75,50,50,0,0,1-28.62,8.5q-22,0-32.63-20t-10.62-51.75q0-30.49,7.87-69.5t23.25-67q15.38-28,36.63-28,12,0,18.87,11.13t6.88,31.87q0,29.76-16.5,69T767.8,478.34q1.74,10.26,5.75,14.63a13.52,13.52,0,0,0,10.5,4.37,29,29,0,0,0,18-5.87q7.74-5.88,19.75-20.13,3-3.49,6.75-3.5A5.78,5.78,0,0,1,833.67,470.84ZM784.8,334.09q-7.26,20.76-12.75,51.5a372.06,372.06,0,0,0-6,59A322.47,322.47,0,0,0,794.3,386q10.5-29.37,10.5-53.63,0-19-7-19Q792,313.34,784.8,334.09Z" transform="translate(-87.06 -288.59)"/><path class="cls-1" d="M910.8,408.59q2.25,1.5,2.25,5,0,6-6.5,42.75-5.76,35.25-6.75,41.75-9.25,64.24-25.5,101.75t-43.25,37.5q-12.75,0-20.75-7.87t-8-20.63a59.54,59.54,0,0,1,5.37-24q5.37-12.26,20-28.12t41.38-36.38l.75-5.75q1.74-9.24,4-26.5-5,18-14,27.38t-19,9.37q-11.25,0-18.38-10.37t-7.12-25.88a217.87,217.87,0,0,1,2.5-34.37,214.3,214.3,0,0,1,8.25-33.13q2.49-7.5,7-10.75t14.25-3.25c3.66,0,6.2.59,7.62,1.75a6.41,6.41,0,0,1,2.13,5.25q0,2-2.75,13.5-2.5,9.26-4,16.75-2,10.26-3.5,19.63a101.18,101.18,0,0,0-1.5,15.37q0,9.51,5.25,9.5,3.75,0,9.37-7.5t12-22.75a303.2,303.2,0,0,0,12.38-37.5q2-7.5,6.12-10.75t12.38-3.25Q908.55,407.09,910.8,408.59Zm-63,190q7.74-14.51,15.5-48.25Q844,566.58,835.42,580t-8.62,23.37a13.63,13.63,0,0,0,1.62,7,5.76,5.76,0,0,0,5.38,2.75Q840,613.09,847.8,598.59Z" transform="translate(-87.06 -288.59)"/><path class="cls-1" d="M641.32,607.33a4.52,4.52,0,0,1,.78,2.8,7,7,0,0,1-2,5.27,42.62,42.62,0,0,1-9.64,7.39,24,24,0,0,1-11.81,2.88q-7,0-11.23-4.2a22.2,22.2,0,0,1-5.78-11.42,34.76,34.76,0,0,1-7.42.76,74.85,74.85,0,0,1-7.53-.42,97.88,97.88,0,0,1,2.37,12,81.33,81.33,0,0,1,.93,10.87q0,9.16-3.61,14a11.25,11.25,0,0,1-9.48,4.84q-7.43,0-10.57-8.66t-3.14-26.15a133.48,133.48,0,0,1,4.27-33.07q4.29-16.77,11.76-27.77t16.44-11a9,9,0,0,1,7.58,3.57q2.73,3.57,2.73,9.6,0,19.95-29,43.47a120,120,0,0,0-1,14.6q0,8.75.72,18t2.37,9.21q3.1,0,3.1-8.83a73.6,73.6,0,0,0-1.09-12.82q-1.08-6.2-2.93-13.07a5.06,5.06,0,0,1,.87-2.81,11.81,11.81,0,0,1,2.42-3,4.16,4.16,0,0,1,2.58-1.27c.9,0,2.3.06,4.23.17,2.2.11,3.85.17,5,.17a35.82,35.82,0,0,0,7.63-.85v-.26a100.16,100.16,0,0,1,3.25-23.6,71.45,71.45,0,0,1,9.58-22.76q6.34-9.5,15.11-9.51a9.22,9.22,0,0,1,7.78,3.78q2.83,3.78,2.84,10.83a47.62,47.62,0,0,1-3.1,15.62,64.92,64.92,0,0,1-9,16.77,48.12,48.12,0,0,1-13.81,12.87q.4,6,2.16,8.53a5.89,5.89,0,0,0,5.16,2.5,13.7,13.7,0,0,0,7.42-2,52.6,52.6,0,0,0,8.15-6.84,3.92,3.92,0,0,1,2.78-1.19A2.5,2.5,0,0,1,641.32,607.33ZM589,559a83.49,83.49,0,0,0-5.41,13.71,182,182,0,0,0-4.64,18,62.33,62.33,0,0,0,12.68-16.09q4.42-8.37,4.54-15.67c0-3.45-.87-5.18-2.58-5.18Q591.68,553.84,589,559Zm32.58,1.15a90.41,90.41,0,0,0-5.11,16,109.54,109.54,0,0,0-2.78,18.94,39.5,39.5,0,0,0,8.77-10.57,51.76,51.76,0,0,0,5.3-12.66,45.33,45.33,0,0,0,1.71-11.59c0-4.3-1-6.45-2.89-6.45Q624.37,553.84,621.53,560.17Z" transform="translate(-87.06 -288.59)"/><path class="cls-1" d="M635.19,621.85a13.52,13.52,0,0,1-3.82-10A23.75,23.75,0,0,1,635.19,599a29,29,0,0,1,10.15-9.76,26.28,26.28,0,0,1,13.46-3.7,4.62,4.62,0,0,1,3,.72,5.74,5.74,0,0,1,1.29,2.59,30,30,0,0,1,4.53-.34q5.05,0,5.06,3a53.68,53.68,0,0,1-1.55,8.49q-2.37,9.76-2.37,13.58a2.63,2.63,0,0,0,2.78,2.8q2,0,4.74-2.08a77.76,77.76,0,0,0,7.53-6.75,3.93,3.93,0,0,1,2.78-1.19,2.52,2.52,0,0,1,2.12,1,4.59,4.59,0,0,1,.77,2.8,6.91,6.91,0,0,1-2,5.27,48.59,48.59,0,0,1-9,7.3,17.3,17.3,0,0,1-9.17,3,10.88,10.88,0,0,1-6.24-1.91,11.79,11.79,0,0,1-4.28-5.22q-5.35,7.14-13.5,7.13Q639,625.67,635.19,621.85Zm18.25-7a13.17,13.17,0,0,0,3-5.86l3.81-15.62a14,14,0,0,0-8,2.67,18.51,18.51,0,0,0-5.82,6.84,19.46,19.46,0,0,0-2.17,9,5.27,5.27,0,0,0,1.29,3.9,4.84,4.84,0,0,0,3.56,1.28A6,6,0,0,0,653.44,614.89Z" transform="translate(-87.06 -288.59)"/><path class="cls-1" d="M719.78,589.12a2.66,2.66,0,0,1,1.08,2.5,9.93,9.93,0,0,1-.1,1.62q-.42,2.63-2.58,13.58c-1,4.93-1.68,8.18-2,9.77q-3.91,21.9-10.57,34.6t-17.78,12.69a13.18,13.18,0,0,1-8.56-2.67,8.6,8.6,0,0,1-3.3-7q0-6,5.78-13t21.65-17l.62-3.31a11.32,11.32,0,0,1-4.59,3.52,14,14,0,0,1-5.62,1.23q-6.39,0-10.21-3.82a13.55,13.55,0,0,1-3.81-10A23.82,23.82,0,0,1,683.64,599a29,29,0,0,1,10.16-9.76,26.24,26.24,0,0,1,13.45-3.7,4.61,4.61,0,0,1,3,.72,5.55,5.55,0,0,1,1.29,2.59,27.57,27.57,0,0,1,4.54-.34A7.7,7.7,0,0,1,719.78,589.12Zm-24.95,61.43q3.24-5.09,6.24-16.22-8,5.61-11.45,10.11t-3.5,7.89a3.94,3.94,0,0,0,.67,2.38,2.53,2.53,0,0,0,2.21.94Q691.58,655.65,694.83,650.55Zm7.27-35.83a14.3,14.3,0,0,0,3.09-6.79l3.3-14.52a13.67,13.67,0,0,0-7.84,2.67,18.76,18.76,0,0,0-5.77,6.84,19.58,19.58,0,0,0-2.16,9,5.27,5.27,0,0,0,1.28,3.9,4.85,4.85,0,0,0,3.56,1.28A6.19,6.19,0,0,0,702.1,614.72Z" transform="translate(-87.06 -288.59)"/><path class="cls-1" d="M737.92,625.5q-2.83-2-2.83-4.58a4.8,4.8,0,0,1,2-3.82,8.86,8.86,0,0,1,5.77-1.62,28.17,28.17,0,0,1,3.15.22c1.2.14,2.11.24,2.73.29a9.45,9.45,0,0,0-1.19-4.16,20.47,20.47,0,0,0-2.73-3.78q-1.65-1.81-3.09-3.18a55.73,55.73,0,0,1-6.34,8.32,69,69,0,0,1-6.86,6.29,6.11,6.11,0,0,1-3.92,1.52,3.74,3.74,0,0,1-2.68-1,3.23,3.23,0,0,1-1-2.42,4.38,4.38,0,0,1,1.44-3.14l1.35-1.36a114.92,114.92,0,0,0,8.55-9.51,53.5,53.5,0,0,0,3.77-5.86q1.9-3.39,5-9.26c1.3-2.49,4-3.73,8.14-3.73a13.13,13.13,0,0,1,4,.42c.76.29,1.14.74,1.14,1.36a5.17,5.17,0,0,1-.42,1.61,10.75,10.75,0,0,1-1.13,2.21,10.57,10.57,0,0,0-1.86,5.18,4.93,4.93,0,0,0,1.09,2.8,31.91,31.91,0,0,0,3.35,3.82,56.48,56.48,0,0,1,5,6.07,9.61,9.61,0,0,1,1.7,5.48,12.42,12.42,0,0,1-2,6.75,14.88,14.88,0,0,1-5.62,5.14,17.1,17.1,0,0,1-8.25,1.95C742.55,627.54,739.81,626.86,737.92,625.5Z" transform="translate(-87.06 -288.59)"/></svg>